<?xml version="1.0" encoding="UTF-8"?>
<svg width="500pt" height="300pt" version="1.1" viewBox="60 120 600 350" xmlns="http://www.w3.org/2000/svg" xmlns:xlink="http://www.w3.org/1999/xlink">
 <defs>
  <symbol id="w" overflow="visible">
   <path d="m25-1.5c-1.2812 0.67969-2.625 1.1836-4.0312 1.5156-1.3984 0.34375-2.8516 0.51562-4.3594 0.51562-4.5312 0-8.125-1.2656-10.781-3.7969-2.6484-2.5391-3.9688-5.9766-3.9688-10.312 0-4.3516 1.3203-7.7969 3.9688-10.328 2.6562-2.5312 6.25-3.7969 10.781-3.7969 1.5078 0 2.9609 0.17188 4.3594 0.51562 1.4062 0.33594 2.75 0.83594 4.0312 1.5v5.6406c-1.293-0.88281-2.5742-1.5352-3.8438-1.9531-1.2617-0.41406-2.5898-0.625-3.9844-0.625-2.5 0-4.4688 0.80469-5.9062 2.4062-1.4375 1.6055-2.1562 3.8203-2.1562 6.6406 0 2.8047 0.71875 5.0078 2.1562 6.6094 1.4375 1.6055 3.4062 2.4062 5.9062 2.4062 1.3945 0 2.7227-0.20312 3.9844-0.60938 1.2695-0.41406 2.5508-1.0664 3.8438-1.9531z"/>
  </symbol>
  <symbol id="c" overflow="visible">
   <path d="m18.297-14.859c-0.57422-0.25781-1.1406-0.45312-1.7031-0.57812-0.5625-0.13281-1.1328-0.20312-1.7031-0.20312-1.6797 0-2.9688 0.54297-3.875 1.625-0.90625 1.0742-1.3594 2.6094-1.3594 4.6094v9.4062h-6.5156v-20.406h6.5156v3.3438c0.84375-1.332 1.8047-2.3047 2.8906-2.9219 1.0938-0.61328 2.3945-0.92188 3.9062-0.92188 0.21875 0 0.45312 0.011719 0.70312 0.03125 0.25781 0.023438 0.63281 0.058594 1.125 0.10938z"/>
  </symbol>
  <symbol id="a" overflow="visible">
   <path d="m23.516-10.266v1.8594h-15.266c0.16406 1.5312 0.72266 2.6836 1.6719 3.4531 0.94531 0.76172 2.2695 1.1406 3.9688 1.1406 1.375 0 2.7812-0.20312 4.2188-0.60938s2.9141-1.0195 4.4375-1.8438v5.0312c-1.543 0.58594-3.0859 1.0234-4.625 1.3125-1.543 0.30078-3.0898 0.45312-4.6406 0.45312-3.6875 0-6.5586-0.9375-8.6094-2.8125-2.043-1.8828-3.0625-4.5195-3.0625-7.9062 0-3.332 1.0039-5.9531 3.0156-7.8594 2.0078-1.9062 4.7734-2.8594 8.2969-2.8594 3.207 0 5.7734 0.96875 7.7031 2.9062 1.9258 1.9297 2.8906 4.5078 2.8906 7.7344zm-6.7031-2.1719c0-1.2383-0.36719-2.2344-1.0938-2.9844-0.71875-0.75781-1.6641-1.1406-2.8281-1.1406-1.2734 0-2.3047 0.35547-3.0938 1.0625-0.78125 0.71094-1.2734 1.7305-1.4688 3.0625z"/>
  </symbol>
  <symbol id="f" overflow="visible">
   <path d="m12.281-9.1875c-1.3555 0-2.375 0.23438-3.0625 0.70312-0.6875 0.46094-1.0312 1.1367-1.0312 2.0312 0 0.82422 0.27344 1.4688 0.82812 1.9375 0.55078 0.46875 1.3164 0.70312 2.2969 0.70312 1.2266 0 2.2578-0.4375 3.0938-1.3125 0.84375-0.88281 1.2656-1.9883 1.2656-3.3125v-0.75zm9.9688-2.4531v11.641h-6.5781v-3.0312c-0.875 1.2422-1.8594 2.1484-2.9531 2.7188-1.0938 0.5625-2.4219 0.84375-3.9844 0.84375-2.1172 0-3.8359-0.61328-5.1562-1.8438-1.3125-1.2383-1.9688-2.8438-1.9688-4.8125 0-2.3945 0.82031-4.1484 2.4688-5.2656 1.6445-1.1133 4.2266-1.6719 7.75-1.6719h3.8438v-0.51562c0-1.0312-0.40625-1.7852-1.2188-2.2656-0.8125-0.47656-2.0859-0.71875-3.8125-0.71875-1.3984 0-2.6992 0.14062-3.9062 0.42188-1.1992 0.27344-2.3125 0.6875-3.3438 1.25v-4.9688c1.3945-0.34375 2.7969-0.60156 4.2031-0.78125 1.4141-0.17578 2.8281-0.26562 4.2344-0.26562 3.6875 0 6.3438 0.73047 7.9688 2.1875 1.6328 1.4492 2.4531 3.8086 2.4531 7.0781z"/>
  </symbol>
  <symbol id="b" overflow="visible">
   <path d="m10.266-26.203v5.7969h6.7188v4.6562h-6.7188v8.6562c0 0.94922 0.1875 1.5898 0.5625 1.9219 0.375 0.33594 1.1172 0.5 2.2344 0.5h3.3594v4.6719h-5.5938c-2.5742 0-4.4023-0.53516-5.4844-1.6094-1.0742-1.0703-1.6094-2.8984-1.6094-5.4844v-8.6562h-3.25v-4.6562h3.25v-5.7969z"/>
  </symbol>
  <symbol id="l" overflow="visible">
   <path d="m17.031-17.422v-10.938h6.5469v28.359h-6.5469v-2.9531c-0.90625 1.2109-1.9023 2.0938-2.9844 2.6562-1.0742 0.55078-2.3242 0.82812-3.75 0.82812-2.5117 0-4.5781-1-6.2031-3-1.6172-2-2.4219-4.5703-2.4219-7.7188 0-3.1445 0.80469-5.7188 2.4219-7.7188 1.625-2 3.6914-3 6.2031-3 1.4062 0 2.6484 0.28906 3.7344 0.85938 1.0938 0.5625 2.0938 1.4375 3 2.625zm-4.3125 13.219c1.3945 0 2.4609-0.50781 3.2031-1.5312 0.73828-1.0195 1.1094-2.5039 1.1094-4.4531 0-1.9453-0.37109-3.4297-1.1094-4.4531-0.74219-1.0195-1.8086-1.5312-3.2031-1.5312-1.3867 0-2.4492 0.51172-3.1875 1.5312-0.73047 1.0234-1.0938 2.5078-1.0938 4.4531 0 1.9492 0.36328 3.4336 1.0938 4.4531 0.73828 1.0234 1.8008 1.5312 3.1875 1.5312z"/>
  </symbol>
  <symbol id="k" overflow="visible">
   <path d="m14-4.2031c1.3945 0 2.457-0.50781 3.1875-1.5312 0.73828-1.0195 1.1094-2.5039 1.1094-4.4531 0-1.9453-0.37109-3.4297-1.1094-4.4531-0.73047-1.0195-1.793-1.5312-3.1875-1.5312-1.3984 0-2.4688 0.51562-3.2188 1.5469-0.75 1.0234-1.125 2.5-1.125 4.4375 0 1.9297 0.375 3.4062 1.125 4.4375s1.8203 1.5469 3.2188 1.5469zm-4.3438-13.219c0.90625-1.1875 1.9062-2.0625 3-2.625 1.0938-0.57031 2.3477-0.85938 3.7656-0.85938 2.5078 0 4.5703 1 6.1875 3 1.625 2 2.4375 4.5742 2.4375 7.7188 0 3.1484-0.8125 5.7188-2.4375 7.7188-1.6172 2-3.6797 3-6.1875 3-1.418 0-2.6719-0.28125-3.7656-0.84375-1.0938-0.57031-2.0938-1.4531-3-2.6406v2.9531h-6.5156v-28.359h6.5156z"/>
  </symbol>
  <symbol id="j" overflow="visible">
   <path d="m0.45312-20.406h6.5312l5.4844 13.844 4.6719-13.844h6.5156l-8.5781 22.344c-0.86719 2.2695-1.875 3.8594-3.0312 4.7656-1.1484 0.90625-2.6562 1.3594-4.5312 1.3594h-3.7812v-4.2969h2.0469c1.1016 0 1.9062-0.17969 2.4062-0.53125 0.50781-0.34375 0.90625-0.97656 1.1875-1.8906l0.17188-0.5625z"/>
  </symbol>
  <symbol id="i" overflow="visible">
   <path d="m10.438-21.906v16.609h2.5156c2.875 0 5.0664-0.70703 6.5781-2.125 1.5078-1.4258 2.2656-3.5 2.2656-6.2188 0-2.6953-0.75781-4.75-2.2656-6.1562-1.5-1.4062-3.6953-2.1094-6.5781-2.1094zm-7.0156-5.3125h7.4062c4.1328 0 7.2109 0.29688 9.2344 0.89062 2.0195 0.59375 3.7539 1.5938 5.2031 3 1.2695 1.2305 2.2109 2.6484 2.8281 4.25 0.625 1.6055 0.9375 3.418 0.9375 5.4375 0 2.0625-0.3125 3.9023-0.9375 5.5156-0.61719 1.6055-1.5586 3.0234-2.8281 4.25-1.4609 1.4062-3.2109 2.4062-5.25 3-2.043 0.58594-5.1055 0.875-9.1875 0.875h-7.4062z"/>
  </symbol>
  <symbol id="e" overflow="visible">
   <path d="m23.656-12.438v12.438h-6.5625v-9.5156c0-1.7578-0.042969-2.9727-0.125-3.6406-0.074219-0.66406-0.21094-1.1602-0.40625-1.4844-0.25-0.42578-0.59375-0.75391-1.0312-0.98438-0.4375-0.23828-0.9375-0.35938-1.5-0.35938-1.3555 0-2.4219 0.52734-3.2031 1.5781-0.78125 1.0547-1.1719 2.5078-1.1719 4.3594v10.047h-6.5156v-20.406h6.5156v2.9844c0.98828-1.1875 2.0352-2.0625 3.1406-2.625 1.1016-0.57031 2.3203-0.85938 3.6562-0.85938 2.3633 0 4.1562 0.72656 5.375 2.1719 1.2188 1.4492 1.8281 3.5469 1.8281 6.2969z"/>
  </symbol>
  <symbol id="h" overflow="visible">
   <path d="m3.1406-20.406h6.5156v20.406h-6.5156zm0-7.9531h6.5156v5.3281h-6.5156z"/>
  </symbol>
  <symbol id="v" overflow="visible">
   <path d="m19.078-19.781v4.9688c-1.3984-0.58203-2.7461-1.0195-4.0469-1.3125-1.293-0.28906-2.5156-0.4375-3.6719-0.4375-1.2422 0-2.1641 0.15625-2.7656 0.46875-0.60547 0.30469-0.90625 0.77734-0.90625 1.4219 0 0.52344 0.22656 0.92188 0.6875 1.2031 0.45703 0.28125 1.2734 0.49219 2.4531 0.625l1.1406 0.15625c3.3438 0.42969 5.5938 1.1328 6.75 2.1094 1.1562 0.96875 1.7344 2.4922 1.7344 4.5625 0 2.1797-0.80469 3.8125-2.4062 4.9062-1.6055 1.0938-4 1.6406-7.1875 1.6406-1.3438 0-2.7422-0.10938-4.1875-0.32812-1.4375-0.20703-2.918-0.52344-4.4375-0.95312v-4.9531c1.3008 0.63672 2.6328 1.1094 4 1.4219 1.375 0.3125 2.7656 0.46875 4.1719 0.46875 1.2812 0 2.2383-0.17188 2.875-0.51562 0.64453-0.35156 0.96875-0.87891 0.96875-1.5781 0-0.58203-0.22656-1.0156-0.67188-1.2969-0.4375-0.28906-1.3203-0.51562-2.6406-0.67188l-1.1562-0.14062c-2.8984-0.36328-4.9297-1.0352-6.0938-2.0156-1.168-0.98828-1.75-2.4883-1.75-4.5 0-2.1562 0.73828-3.7539 2.2188-4.7969 1.4766-1.0508 3.75-1.5781 6.8125-1.5781 1.207 0 2.4727 0.09375 3.7969 0.28125 1.3203 0.17969 2.7578 0.46094 4.3125 0.84375z"/>
  </symbol>
  <symbol id="u" overflow="visible">
   <path d="m22.359-26.359v5.7656c-1.4922-0.66406-2.9492-1.1719-4.375-1.5156-1.418-0.34375-2.7578-0.51562-4.0156-0.51562-1.6797 0-2.918 0.23438-3.7188 0.70312-0.80469 0.46094-1.2031 1.1719-1.2031 2.1406 0 0.73047 0.26562 1.2969 0.79688 1.7031 0.53906 0.40625 1.5234 0.75781 2.9531 1.0469l2.9844 0.60938c3.0312 0.60547 5.1797 1.5273 6.4531 2.7656 1.2812 1.2422 1.9219 3.0078 1.9219 5.2969 0 3-0.89062 5.2344-2.6719 6.7031-1.7812 1.4609-4.5 2.1875-8.1562 2.1875-1.7305 0-3.4648-0.16797-5.2031-0.5-1.7422-0.32031-3.4766-0.80469-5.2031-1.4531v-5.9219c1.7266 0.92969 3.4062 1.625 5.0312 2.0938 1.625 0.46094 3.1914 0.6875 4.7031 0.6875 1.5312 0 2.7031-0.25391 3.5156-0.76562 0.8125-0.50781 1.2188-1.2383 1.2188-2.1875 0-0.84375-0.27734-1.4922-0.82812-1.9531-0.55469-0.46875-1.6562-0.88281-3.3125-1.25l-2.7188-0.59375c-2.7188-0.58203-4.7109-1.5078-5.9688-2.7812-1.2617-1.2812-1.8906-3.0039-1.8906-5.1719 0-2.707 0.875-4.7891 2.625-6.25 1.75-1.457 4.2656-2.1875 7.5469-2.1875 1.5 0 3.0352 0.11719 4.6094 0.34375 1.582 0.21875 3.2188 0.55469 4.9062 1z"/>
  </symbol>
  <symbol id="t" overflow="visible">
   <path d="m2.125-20.406h17.812v4.5469l-10.75 11.188h10.75v4.6719h-18.266v-4.5625l10.766-11.188h-10.312z"/>
  </symbol>
  <symbol id="g" overflow="visible">
   <path d="m23.656-12.438v12.438h-6.5625v-9.4844c0-1.7812-0.042969-3.0039-0.125-3.6719-0.074219-0.66406-0.21094-1.1602-0.40625-1.4844-0.25-0.42578-0.59375-0.75391-1.0312-0.98438-0.4375-0.23828-0.9375-0.35938-1.5-0.35938-1.3555 0-2.4219 0.52734-3.2031 1.5781-0.78125 1.0547-1.1719 2.5078-1.1719 4.3594v10.047h-6.5156v-28.359h6.5156v10.938c0.98828-1.1875 2.0352-2.0625 3.1406-2.625 1.1016-0.57031 2.3203-0.85938 3.6562-0.85938 2.3633 0 4.1562 0.72656 5.375 2.1719 1.2188 1.4492 1.8281 3.5469 1.8281 6.2969z"/>
  </symbol>
  <symbol id="s" overflow="visible">
   <path d="m16.562-28.359v4.2812h-3.6094c-0.91797 0-1.5586 0.16797-1.9219 0.5-0.36719 0.33594-0.54688 0.91797-0.54688 1.75v1.4219h5.5781v4.6562h-5.5781v15.75h-6.5312v-15.75h-3.25v-4.6562h3.25v-1.4219c0-2.2266 0.61719-3.875 1.8594-4.9375 1.2383-1.0625 3.1602-1.5938 5.7656-1.5938z"/>
  </symbol>
  <symbol id="d" overflow="visible">
   <path d="m12.844-16.234c-1.4375 0-2.5391 0.52344-3.2969 1.5625-0.76172 1.0312-1.1406 2.5273-1.1406 4.4844 0 1.9609 0.37891 3.4609 1.1406 4.5 0.75781 1.0312 1.8594 1.5469 3.2969 1.5469 1.4258 0 2.5156-0.51562 3.2656-1.5469 0.75781-1.0391 1.1406-2.5391 1.1406-4.5 0-1.957-0.38281-3.4531-1.1406-4.4844-0.75-1.0391-1.8398-1.5625-3.2656-1.5625zm0-4.6719c3.5195 0 6.2656 0.94922 8.2344 2.8438 1.9766 1.8984 2.9688 4.5234 2.9688 7.875 0 3.3555-0.99219 5.9805-2.9688 7.875-1.9688 1.8984-4.7148 2.8438-8.2344 2.8438-3.5234 0-6.2773-0.94531-8.2656-2.8438-1.9805-1.8945-2.9688-4.5195-2.9688-7.875 0-3.3516 0.98828-5.9766 2.9688-7.875 1.9883-1.8945 4.7422-2.8438 8.2656-2.8438z"/>
  </symbol>
  <symbol id="r" overflow="visible">
   <path d="m22.047-17.031c0.83203-1.2578 1.8164-2.2188 2.9531-2.875 1.1328-0.66406 2.3828-1 3.75-1 2.3438 0 4.125 0.72656 5.3438 2.1719 1.2266 1.4492 1.8438 3.5469 1.8438 6.2969v12.438h-6.5625v-10.641c0.019531-0.15625 0.03125-0.31641 0.03125-0.48438 0.007812-0.17578 0.015625-0.42188 0.015625-0.73438 0-1.4453-0.21484-2.4922-0.64062-3.1406-0.42969-0.65625-1.1172-0.98438-2.0625-0.98438-1.2422 0-2.1992 0.51172-2.875 1.5312-0.66797 1.0234-1.0156 2.4961-1.0469 4.4219v10.031h-6.5625v-10.641c0-2.2578-0.19531-3.7109-0.57812-4.3594-0.38672-0.65625-1.0781-0.98438-2.0781-0.98438-1.25 0-2.2188 0.51562-2.9062 1.5469-0.67969 1.0234-1.0156 2.4844-1.0156 4.3906v10.047h-6.5625v-20.406h6.5625v2.9844c0.80078-1.1562 1.7227-2.0234 2.7656-2.6094 1.0391-0.58203 2.1875-0.875 3.4375-0.875 1.4062 0 2.6484 0.34375 3.7344 1.0312 1.082 0.67969 1.8984 1.625 2.4531 2.8438z"/>
  </symbol>
  <symbol id="q" overflow="visible">
   <path d="m3.4219-27.219h7.8438l9.8906 18.672v-18.672h6.6562v27.219h-7.8438l-9.8906-18.672v18.672h-6.6562z"/>
  </symbol>
  <symbol id="p" overflow="visible">
   <path d="m2.9219-7.9531v-12.453h6.5625v2.0312c0 1.1055-0.011719 2.4961-0.03125 4.1719-0.011719 1.668-0.015625 2.7812-0.015625 3.3438 0 1.6367 0.039062 2.8203 0.125 3.5469 0.09375 0.71875 0.23828 1.2461 0.4375 1.5781 0.26953 0.41797 0.61719 0.74609 1.0469 0.98438 0.4375 0.23047 0.9375 0.34375 1.5 0.34375 1.3516 0 2.4219-0.51953 3.2031-1.5625 0.78125-1.0508 1.1719-2.5039 1.1719-4.3594v-10.078h6.5156v20.406h-6.5156v-2.9531c-0.99219 1.1875-2.0391 2.0703-3.1406 2.6406-1.0938 0.5625-2.3047 0.84375-3.625 0.84375-2.3672 0-4.1641-0.72266-5.3906-2.1719-1.2305-1.4453-1.8438-3.5508-1.8438-6.3125z"/>
  </symbol>
  <symbol id="o" overflow="visible">
   <path d="m3.4219-27.219h11.656c3.457 0 6.1133 0.77344 7.9688 2.3125 1.8516 1.543 2.7812 3.7305 2.7812 6.5625 0 2.8672-0.92969 5.0703-2.7812 6.6094-1.8555 1.5312-4.5117 2.2969-7.9688 2.2969h-4.6406v9.4375h-7.0156zm7.0156 5.0938v7.5938h3.8906c1.3633 0 2.4141-0.32812 3.1562-0.98438 0.73828-0.66406 1.1094-1.6094 1.1094-2.8281 0-1.207-0.37109-2.1406-1.1094-2.7969-0.74219-0.65625-1.793-0.98438-3.1562-0.98438z"/>
  </symbol>
  <symbol id="n" overflow="visible">
   <path d="m3.1406-20.406h6.5156v20.047c0 2.7266-0.65625 4.8125-1.9688 6.25-1.3125 1.4453-3.2148 2.1719-5.7031 2.1719h-3.2188v-4.2969h1.125c1.2383 0 2.0859-0.28125 2.5469-0.84375 0.46875-0.55469 0.70312-1.6484 0.70312-3.2812zm0-7.9531h6.5156v5.3281h-6.5156z"/>
  </symbol>
  <symbol id="m" overflow="visible">
   <path d="m19.625-19.781v5.3281c-0.88672-0.60156-1.7773-1.0508-2.6719-1.3438-0.88672-0.28906-1.8086-0.4375-2.7656-0.4375-1.8242 0-3.2461 0.53125-4.2656 1.5938-1.0117 1.0625-1.5156 2.5469-1.5156 4.4531s0.50391 3.3906 1.5156 4.4531c1.0195 1.0625 2.4414 1.5938 4.2656 1.5938 1.0195 0 1.9883-0.14844 2.9062-0.45312 0.91406-0.30078 1.7578-0.75 2.5312-1.3438v5.3438c-1.0234 0.375-2.0586 0.65625-3.1094 0.84375-1.043 0.1875-2.0938 0.28125-3.1562 0.28125-3.6797 0-6.5586-0.94141-8.6406-2.8281-2.0742-1.8945-3.1094-4.5234-3.1094-7.8906 0-3.3633 1.0352-5.9883 3.1094-7.875 2.082-1.8945 4.9609-2.8438 8.6406-2.8438 1.0703 0 2.125 0.09375 3.1562 0.28125 1.0391 0.1875 2.0781 0.46875 3.1094 0.84375z"/>
  </symbol>
 </defs>
 <g>
  <path d="m535.57 458.89c-3.3984-1.7695-5.3789-4.1055-5.8984-6.9375-0.83594-4.5547 2.0234-9.7266 4.9727-13.051 6.4258-7.2266 17.934-11.355 25.551-14.09 2.1797-0.78516 4.0742-1.4727 5.5156-2.0898 10.551-4.5039 21.379-18.445 24.133-31.062 1.7773-8.0938 0.23047-15.113-4.4414-20.277-9.418-10.32-28.688-17.809-47.332-25.059-16.113-6.2656-32.777-12.738-36.988-19.469-0.21875-0.35547-0.50781-0.63281-0.83203-0.85547-0.67188-0.78516-1.7305-1.1953-2.8594-0.96484-1.5586 0.34375-2.5742 1.9648-2.2383 3.5391 0.14844 3.3438-2.9258 11.609-7.8984 16.41-9.2305 8.8867-24.625 14.332-38.23 19.145-9.7461 3.4531-18.957 6.707-25.035 10.902-0.94141 0.65625-2.1602 1.5781-3.5781 2.6367-8.0938 6.1016-24.977 18.785-31.621 10.738-2.0078-2.4141-3.082-4.9805-3.1797-7.6562-0.20312-4.1953 1.9336-8.7422 6.0117-12.812 4.6055-4.5898 10.816-7.668 15.207-7.4336 1.0391 0.066406 2.0703-0.48047 2.6289-1.3828 0.55078-0.90234 0.57422-2.0469 0.058594-2.9727l-5.2773-9.3789c-9.4102-15.992-7.5117-34.234 4.7031-45.395 1.1953-1.0898 1.2773-2.9375 0.19531-4.1289-1.0898-1.1875-2.9414-1.2695-4.1289-0.17969-14.316 13.074-16.645 34.234-5.832 52.617l3.0977 5.5039c-4.9805 1.1836-10.477 4.3281-14.777 8.6211-4.4727 4.457-7.0977 9.5586-7.6211 14.57-6.8789 3.7852-15.973 5.7773-25.598 7.8906-5.4805 1.2109-11.148 2.4492-16.977 4.1133-3.6445 1.0469-8.1641 2.293-13.074 3.6289-13.883 3.793-30.719 8.4062-40.418 12.246-0.74609-6.1836-2.2031-17.023-4.0117-27.371 0.46484-0.22656 0.89062-0.53906 1.2031-0.99609 5.4883-8.2109 18.266-8.8008 29.531-9.3242 2.8008-0.13672 5.5039-0.25391 7.9961-0.48438 1.6133-0.15625 2.7852-1.5703 2.6367-3.1758-0.15625-1.6055-1.5898-2.7852-3.1719-2.6406-2.4141 0.22266-5.0273 0.34375-7.7383 0.47656-10.832 0.49219-24.035 1.1289-31.754 9.0508-1.5-7.6758-3.1445-14.27-4.7266-17.348 0-0.015625 0-0.035156-0.007813-0.050781-0.14844-0.5-0.45703-0.90234-0.8125-1.2383-0.16406-0.17969-0.32422-0.32422-0.48047-0.41016-0.015625-0.015626-0.035156-0.015626-0.058594-0.023438-0.21484-0.12891-0.46484-0.17969-0.71875-0.23828-0.11719-0.046875-0.23047-0.10547-0.34766-0.12109-0.17969-0.023437-0.35156 0.015625-0.52344 0.03125-0.21875 0.007813-0.42578 0-0.62891 0.058594-0.027343 0.015625-0.050781 0-0.074218 0.015625-19.195 5.8672-38.812 9.9766-58.312 12.176-13.508 1.5625-38.402 4.4219-69.742 0.39062 1.0234-0.85938 1.3984-2.2852 0.76953-3.5312-4.0312-7.8281-7.1211-15.914-9.2188-24.082-0.03125 0-0.054688-0.007813-0.082032-0.015625-2.1055-0.33594-4.3711-0.64062-6.7227-0.96094-7.668-1.0469-16.371-2.2422-23.617-5.0273-1.5-0.57422-2.2539-2.2695-1.6719-3.7695 0.57422-1.5078 2.2695-2.2461 3.7734-1.6719 6.6055 2.5391 14.945 3.6797 22.301 4.6797 1.5742 0.21875 3.1133 0.43359 4.5938 0.65234-0.63672-3.1055-1.1445-6.2266-1.5156-9.3477-8.6328-2.4453-20.738-7.4922-27.09-10.469-1.457-0.67969-2.0859-2.4141-1.4062-3.875 0.6875-1.4648 2.4219-2.0859 3.8828-1.4141 6.0352 2.8242 16.277 7.0664 24.035 9.4922-0.16406-2.6523-0.25391-5.3008-0.23047-7.9609 3.6797 5.2109 9.7305 9.3945 19.684 9.3945 5.5039 0 12.184-1.2852 20.316-4.3672 1.5156-0.57031 2.2695-2.2578 1.7031-3.7578-0.57812-1.5078-2.2773-2.2695-3.7656-1.6953-18.539 7.0195-30.434 4.6914-35.391-6.9062-0.38672-0.91797-1.2188-1.4766-2.1367-1.6562 2.0547-25.141 12.148-49.109 28.98-66.363 0.17188-0.17188 0.3125-0.35938 0.42578-0.57031 1.9922-3.4023 4.2188-7.5547 6.5859-11.988 7.457-13.941 19.898-37.191 27.238-36.207 0.19141 0.03125 0.37109 0.050781 0.58203 0.03125 5.832-0.30078 9.375 13.305 11.676 22.309l0.79297 3.0625c1.0586 4.0742 1.9336 6.7266 2.8438 8.6016 0.47656 0.95312 1.4258 1.5898 2.4883 1.6328 16.461 0.78516 46.523 3.6016 62.824 13.582 1.1875 0.73438 2.7383 0.50781 3.6875-0.53516 4.5977-5.1016 38.32-26.965 47.316-25.031 0.70312 0.16016 0.76953 0.36719 0.84375 0.58984 3.0078 9.8125-1.1719 27.777-4.5234 42.219-1.2695 5.4727-2.4727 10.633-3.1602 14.82-0.25391 1.5898 0.8125 3.0898 2.4102 3.3438 1.5977 0.28516 3.0938-0.8125 3.3555-2.4023 0.64844-3.9883 1.8203-9.0664 3.082-14.441 3.6953-15.91 7.8945-33.934 4.4062-45.27-0.73828-2.375-2.5781-3.9883-5.168-4.5625-11.691-2.5391-42.625 18.023-51.117 25.184-17.059-9.4141-45.137-12.332-61.844-13.238-0.375-0.99219-0.72656-2.1133-1.0391-3.2148 0.58203-0.19531 1.125-0.54688 1.4922-1.1055 17.086-25.777 37.93-45.062 69.719-64.484 42.371-25.871 109.51-32.852 149.66-15.574 31.844 13.723 60.57 41.797 74.965 73.238 8.8242 19.316 10.828 48.289 5.0938 73.84-5.5625 15.395 14.371 34.391 36.145 43.219 6.8711 2.8047 16.328 7.2031 23.93 10.75 5.0938 2.3672 9.5273 4.4336 12.219 5.5703 21.293 9.0938 34.664 22.391 38.668 38.445 4.1523 16.711-1.7305 35.559-17.039 54.516-13.254 16.434-51.699 40.977-72.246 30.18zm-461.71-39.344c4.957-24.922 9.4023-46.328 14.703-69.043 7.707-5.4727 30.516-9.0781 39.289-10.469 0.15625-0.023438 0.28516-0.10547 0.43359-0.15625 2.1953 8.2266 5.293 16.398 9.3555 24.289 0.058594 0.13281 0.1875 0.17969 0.26953 0.29297-2.3086-0.33203-4.6016-0.66016-6.9766-1.0781-10.047-1.7227-20.039-4.082-29.691-6.9961-1.5625-0.47656-3.1758 0.41016-3.6445 1.9414-0.46484 1.5469 0.41016 3.1836 1.957 3.6445 9.875 2.9883 20.098 5.3984 30.379 7.168 3.1523 0.54688 6.2305 1.0234 9.2539 1.4102 12.895 1.7773 24.742 2.3984 35.25 2.3984 16.379 0 29.461-1.5078 38.043-2.5 19.039-2.1602 38.184-6.125 56.961-11.73 2.2344 6.8438 7.0195 32.203 8.8555 50.734-0.47656 0.91016-0.55078 2.0078 0.023437 2.8984 0.066407 0.10547 0.17969 0.15625 0.24609 0.24609 0.45703 5.9492 0.375 8.8086 0.20312 10.152-7.1914 6.7148-44.441 16.816-84.316 17.719-53.145 1.2344-112.69-9.2578-120.59-20.922zm125.18-83.012c1.9023-2.1797 2.9922-3.1523 1.3203-4.6289-5.5625-4.9062-22.883-11.133-26.461-2.6133-0.66406 1.3633-0.77734 2.5742-0.46094 3.7031 2.0586 6.8438 20.965 8.9531 25.602 3.5391zm68.117-14.621c1.1641-1.1133 1.2188-2.957 0.10547-4.1289-1.1133-1.1562-2.9648-1.2109-4.1367-0.089844-7.625 7.2578-19.867 10.879-29.121 8.5586-3.8516-0.96484-8.9062-3.4492-11.035-9.8633-0.50781-1.5312-2.1719-2.3398-3.6875-1.8477-1.5234 0.50781-2.3594 2.168-1.8516 3.6914 2.3203 6.9648 7.6992 11.824 15.156 13.68 2.2773 0.56641 4.6953 0.84375 7.1992 0.84375 9.6094 0 20.234-4.0547 27.371-10.844z" fill-rule="evenodd"/>
<!--  <use x="70" y="672" xlink:href="#w"/>-->
<!--  <use x="97.398438" y="672" xlink:href="#c"/>-->
<!--  <use x="115.808594" y="672" xlink:href="#a"/>-->
<!--  <use x="141.128906" y="672" xlink:href="#f"/>-->
<!--  <use x="166.324219" y="672" xlink:href="#b"/>-->
<!--  <use x="184.167969" y="672" xlink:href="#a"/>-->
<!--  <use x="209.488281" y="672" xlink:href="#l"/>-->
<!--  <use x="249.210938" y="672" xlink:href="#k"/>-->
<!--  <use x="275.933594" y="672" xlink:href="#j"/>-->
<!--  <use x="313.269531" y="672" xlink:href="#i"/>-->
<!--  <use x="344.257812" y="672" xlink:href="#a"/>-->
<!--  <use x="369.578125" y="672" xlink:href="#e"/>-->
<!--  <use x="396.15625" y="672" xlink:href="#h"/>-->
<!--  <use x="408.953125" y="672" xlink:href="#v"/>-->
<!--  <use x="444.171875" y="672" xlink:href="#u"/>-->
<!--  <use x="471.058594" y="672" xlink:href="#f"/>-->
<!--  <use x="496.253906" y="672" xlink:href="#t"/>-->
<!--  <use x="517.980469" y="672" xlink:href="#g"/>-->
<!--  <use x="544.558594" y="672" xlink:href="#h"/>-->
<!--  <use x="557.355469" y="672" xlink:href="#e"/>-->
<!--  <use x="70" y="709.332031" xlink:href="#s"/>-->
<!--  <use x="86.242188" y="709.332031" xlink:href="#c"/>-->
<!--  <use x="104.652344" y="709.332031" xlink:href="#d"/>-->
<!--  <use x="130.300781" y="709.332031" xlink:href="#r"/>-->
<!--  <use x="182.199219" y="709.332031" xlink:href="#b"/>-->
<!--  <use x="200.046875" y="709.332031" xlink:href="#g"/>-->
<!--  <use x="226.625" y="709.332031" xlink:href="#a"/>-->
<!--  <use x="264.941406" y="709.332031" xlink:href="#q"/>-->
<!--  <use x="296.1875" y="709.332031" xlink:href="#d"/>-->
<!--  <use x="321.835938" y="709.332031" xlink:href="#p"/>-->
<!--  <use x="348.414062" y="709.332031" xlink:href="#e"/>-->
<!--  <use x="387.988281" y="709.332031" xlink:href="#o"/>-->
<!--  <use x="415.351562" y="709.332031" xlink:href="#c"/>-->
<!--  <use x="433.761719" y="709.332031" xlink:href="#d"/>-->
<!--  <use x="459.410156" y="709.332031" xlink:href="#n"/>-->
<!--  <use x="472.207031" y="709.332031" xlink:href="#a"/>-->
<!--  <use x="497.527344" y="709.332031" xlink:href="#m"/>-->
<!--  <use x="519.660156" y="709.332031" xlink:href="#b"/>-->
 </g>
</svg>
