<?xml version="1.0" encoding="UTF-8"?>
<svg width="500pt" height="300pt" version="1.1" viewBox="60 120 600 300" xmlns="http://www.w3.org/2000/svg" xmlns:xlink="http://www.w3.org/1999/xlink">
 <defs>
  <symbol id="w" overflow="visible">
   <path d="m25-1.5c-1.2812 0.67969-2.625 1.1836-4.0312 1.5156-1.3984 0.34375-2.8516 0.51562-4.3594 0.51562-4.5312 0-8.125-1.2656-10.781-3.7969-2.6484-2.5391-3.9688-5.9766-3.9688-10.312 0-4.3516 1.3203-7.7969 3.9688-10.328 2.6562-2.5312 6.25-3.7969 10.781-3.7969 1.5078 0 2.9609 0.17188 4.3594 0.51562 1.4062 0.33594 2.75 0.83594 4.0312 1.5v5.6406c-1.293-0.88281-2.5742-1.5352-3.8438-1.9531-1.2617-0.41406-2.5898-0.625-3.9844-0.625-2.5 0-4.4688 0.80469-5.9062 2.4062-1.4375 1.6055-2.1562 3.8203-2.1562 6.6406 0 2.8047 0.71875 5.0078 2.1562 6.6094 1.4375 1.6055 3.4062 2.4062 5.9062 2.4062 1.3945 0 2.7227-0.20312 3.9844-0.60938 1.2695-0.41406 2.5508-1.0664 3.8438-1.9531z"/>
  </symbol>
  <symbol id="c" overflow="visible">
   <path d="m18.297-14.859c-0.57422-0.25781-1.1406-0.45312-1.7031-0.57812-0.5625-0.13281-1.1328-0.20312-1.7031-0.20312-1.6797 0-2.9688 0.54297-3.875 1.625-0.90625 1.0742-1.3594 2.6094-1.3594 4.6094v9.4062h-6.5156v-20.406h6.5156v3.3438c0.84375-1.332 1.8047-2.3047 2.8906-2.9219 1.0938-0.61328 2.3945-0.92188 3.9062-0.92188 0.21875 0 0.45312 0.011719 0.70312 0.03125 0.25781 0.023438 0.63281 0.058594 1.125 0.10938z"/>
  </symbol>
  <symbol id="a" overflow="visible">
   <path d="m23.516-10.266v1.8594h-15.266c0.16406 1.5312 0.72266 2.6836 1.6719 3.4531 0.94531 0.76172 2.2695 1.1406 3.9688 1.1406 1.375 0 2.7812-0.20312 4.2188-0.60938s2.9141-1.0195 4.4375-1.8438v5.0312c-1.543 0.58594-3.0859 1.0234-4.625 1.3125-1.543 0.30078-3.0898 0.45312-4.6406 0.45312-3.6875 0-6.5586-0.9375-8.6094-2.8125-2.043-1.8828-3.0625-4.5195-3.0625-7.9062 0-3.332 1.0039-5.9531 3.0156-7.8594 2.0078-1.9062 4.7734-2.8594 8.2969-2.8594 3.207 0 5.7734 0.96875 7.7031 2.9062 1.9258 1.9297 2.8906 4.5078 2.8906 7.7344zm-6.7031-2.1719c0-1.2383-0.36719-2.2344-1.0938-2.9844-0.71875-0.75781-1.6641-1.1406-2.8281-1.1406-1.2734 0-2.3047 0.35547-3.0938 1.0625-0.78125 0.71094-1.2734 1.7305-1.4688 3.0625z"/>
  </symbol>
  <symbol id="f" overflow="visible">
   <path d="m12.281-9.1875c-1.3555 0-2.375 0.23438-3.0625 0.70312-0.6875 0.46094-1.0312 1.1367-1.0312 2.0312 0 0.82422 0.27344 1.4688 0.82812 1.9375 0.55078 0.46875 1.3164 0.70312 2.2969 0.70312 1.2266 0 2.2578-0.4375 3.0938-1.3125 0.84375-0.88281 1.2656-1.9883 1.2656-3.3125v-0.75zm9.9688-2.4531v11.641h-6.5781v-3.0312c-0.875 1.2422-1.8594 2.1484-2.9531 2.7188-1.0938 0.5625-2.4219 0.84375-3.9844 0.84375-2.1172 0-3.8359-0.61328-5.1562-1.8438-1.3125-1.2383-1.9688-2.8438-1.9688-4.8125 0-2.3945 0.82031-4.1484 2.4688-5.2656 1.6445-1.1133 4.2266-1.6719 7.75-1.6719h3.8438v-0.51562c0-1.0312-0.40625-1.7852-1.2188-2.2656-0.8125-0.47656-2.0859-0.71875-3.8125-0.71875-1.3984 0-2.6992 0.14062-3.9062 0.42188-1.1992 0.27344-2.3125 0.6875-3.3438 1.25v-4.9688c1.3945-0.34375 2.7969-0.60156 4.2031-0.78125 1.4141-0.17578 2.8281-0.26562 4.2344-0.26562 3.6875 0 6.3438 0.73047 7.9688 2.1875 1.6328 1.4492 2.4531 3.8086 2.4531 7.0781z"/>
  </symbol>
  <symbol id="b" overflow="visible">
   <path d="m10.266-26.203v5.7969h6.7188v4.6562h-6.7188v8.6562c0 0.94922 0.1875 1.5898 0.5625 1.9219 0.375 0.33594 1.1172 0.5 2.2344 0.5h3.3594v4.6719h-5.5938c-2.5742 0-4.4023-0.53516-5.4844-1.6094-1.0742-1.0703-1.6094-2.8984-1.6094-5.4844v-8.6562h-3.25v-4.6562h3.25v-5.7969z"/>
  </symbol>
  <symbol id="l" overflow="visible">
   <path d="m17.031-17.422v-10.938h6.5469v28.359h-6.5469v-2.9531c-0.90625 1.2109-1.9023 2.0938-2.9844 2.6562-1.0742 0.55078-2.3242 0.82812-3.75 0.82812-2.5117 0-4.5781-1-6.2031-3-1.6172-2-2.4219-4.5703-2.4219-7.7188 0-3.1445 0.80469-5.7188 2.4219-7.7188 1.625-2 3.6914-3 6.2031-3 1.4062 0 2.6484 0.28906 3.7344 0.85938 1.0938 0.5625 2.0938 1.4375 3 2.625zm-4.3125 13.219c1.3945 0 2.4609-0.50781 3.2031-1.5312 0.73828-1.0195 1.1094-2.5039 1.1094-4.4531 0-1.9453-0.37109-3.4297-1.1094-4.4531-0.74219-1.0195-1.8086-1.5312-3.2031-1.5312-1.3867 0-2.4492 0.51172-3.1875 1.5312-0.73047 1.0234-1.0938 2.5078-1.0938 4.4531 0 1.9492 0.36328 3.4336 1.0938 4.4531 0.73828 1.0234 1.8008 1.5312 3.1875 1.5312z"/>
  </symbol>
  <symbol id="k" overflow="visible">
   <path d="m14-4.2031c1.3945 0 2.457-0.50781 3.1875-1.5312 0.73828-1.0195 1.1094-2.5039 1.1094-4.4531 0-1.9453-0.37109-3.4297-1.1094-4.4531-0.73047-1.0195-1.793-1.5312-3.1875-1.5312-1.3984 0-2.4688 0.51562-3.2188 1.5469-0.75 1.0234-1.125 2.5-1.125 4.4375 0 1.9297 0.375 3.4062 1.125 4.4375s1.8203 1.5469 3.2188 1.5469zm-4.3438-13.219c0.90625-1.1875 1.9062-2.0625 3-2.625 1.0938-0.57031 2.3477-0.85938 3.7656-0.85938 2.5078 0 4.5703 1 6.1875 3 1.625 2 2.4375 4.5742 2.4375 7.7188 0 3.1484-0.8125 5.7188-2.4375 7.7188-1.6172 2-3.6797 3-6.1875 3-1.418 0-2.6719-0.28125-3.7656-0.84375-1.0938-0.57031-2.0938-1.4531-3-2.6406v2.9531h-6.5156v-28.359h6.5156z"/>
  </symbol>
  <symbol id="j" overflow="visible">
   <path d="m0.45312-20.406h6.5312l5.4844 13.844 4.6719-13.844h6.5156l-8.5781 22.344c-0.86719 2.2695-1.875 3.8594-3.0312 4.7656-1.1484 0.90625-2.6562 1.3594-4.5312 1.3594h-3.7812v-4.2969h2.0469c1.1016 0 1.9062-0.17969 2.4062-0.53125 0.50781-0.34375 0.90625-0.97656 1.1875-1.8906l0.17188-0.5625z"/>
  </symbol>
  <symbol id="i" overflow="visible">
   <path d="m10.438-21.906v16.609h2.5156c2.875 0 5.0664-0.70703 6.5781-2.125 1.5078-1.4258 2.2656-3.5 2.2656-6.2188 0-2.6953-0.75781-4.75-2.2656-6.1562-1.5-1.4062-3.6953-2.1094-6.5781-2.1094zm-7.0156-5.3125h7.4062c4.1328 0 7.2109 0.29688 9.2344 0.89062 2.0195 0.59375 3.7539 1.5938 5.2031 3 1.2695 1.2305 2.2109 2.6484 2.8281 4.25 0.625 1.6055 0.9375 3.418 0.9375 5.4375 0 2.0625-0.3125 3.9023-0.9375 5.5156-0.61719 1.6055-1.5586 3.0234-2.8281 4.25-1.4609 1.4062-3.2109 2.4062-5.25 3-2.043 0.58594-5.1055 0.875-9.1875 0.875h-7.4062z"/>
  </symbol>
  <symbol id="e" overflow="visible">
   <path d="m23.656-12.438v12.438h-6.5625v-9.5156c0-1.7578-0.042969-2.9727-0.125-3.6406-0.074219-0.66406-0.21094-1.1602-0.40625-1.4844-0.25-0.42578-0.59375-0.75391-1.0312-0.98438-0.4375-0.23828-0.9375-0.35938-1.5-0.35938-1.3555 0-2.4219 0.52734-3.2031 1.5781-0.78125 1.0547-1.1719 2.5078-1.1719 4.3594v10.047h-6.5156v-20.406h6.5156v2.9844c0.98828-1.1875 2.0352-2.0625 3.1406-2.625 1.1016-0.57031 2.3203-0.85938 3.6562-0.85938 2.3633 0 4.1562 0.72656 5.375 2.1719 1.2188 1.4492 1.8281 3.5469 1.8281 6.2969z"/>
  </symbol>
  <symbol id="h" overflow="visible">
   <path d="m3.1406-20.406h6.5156v20.406h-6.5156zm0-7.9531h6.5156v5.3281h-6.5156z"/>
  </symbol>
  <symbol id="v" overflow="visible">
   <path d="m19.078-19.781v4.9688c-1.3984-0.58203-2.7461-1.0195-4.0469-1.3125-1.293-0.28906-2.5156-0.4375-3.6719-0.4375-1.2422 0-2.1641 0.15625-2.7656 0.46875-0.60547 0.30469-0.90625 0.77734-0.90625 1.4219 0 0.52344 0.22656 0.92188 0.6875 1.2031 0.45703 0.28125 1.2734 0.49219 2.4531 0.625l1.1406 0.15625c3.3438 0.42969 5.5938 1.1328 6.75 2.1094 1.1562 0.96875 1.7344 2.4922 1.7344 4.5625 0 2.1797-0.80469 3.8125-2.4062 4.9062-1.6055 1.0938-4 1.6406-7.1875 1.6406-1.3438 0-2.7422-0.10938-4.1875-0.32812-1.4375-0.20703-2.918-0.52344-4.4375-0.95312v-4.9531c1.3008 0.63672 2.6328 1.1094 4 1.4219 1.375 0.3125 2.7656 0.46875 4.1719 0.46875 1.2812 0 2.2383-0.17188 2.875-0.51562 0.64453-0.35156 0.96875-0.87891 0.96875-1.5781 0-0.58203-0.22656-1.0156-0.67188-1.2969-0.4375-0.28906-1.3203-0.51562-2.6406-0.67188l-1.1562-0.14062c-2.8984-0.36328-4.9297-1.0352-6.0938-2.0156-1.168-0.98828-1.75-2.4883-1.75-4.5 0-2.1562 0.73828-3.7539 2.2188-4.7969 1.4766-1.0508 3.75-1.5781 6.8125-1.5781 1.207 0 2.4727 0.09375 3.7969 0.28125 1.3203 0.17969 2.7578 0.46094 4.3125 0.84375z"/>
  </symbol>
  <symbol id="u" overflow="visible">
   <path d="m22.359-26.359v5.7656c-1.4922-0.66406-2.9492-1.1719-4.375-1.5156-1.418-0.34375-2.7578-0.51562-4.0156-0.51562-1.6797 0-2.918 0.23438-3.7188 0.70312-0.80469 0.46094-1.2031 1.1719-1.2031 2.1406 0 0.73047 0.26562 1.2969 0.79688 1.7031 0.53906 0.40625 1.5234 0.75781 2.9531 1.0469l2.9844 0.60938c3.0312 0.60547 5.1797 1.5273 6.4531 2.7656 1.2812 1.2422 1.9219 3.0078 1.9219 5.2969 0 3-0.89062 5.2344-2.6719 6.7031-1.7812 1.4609-4.5 2.1875-8.1562 2.1875-1.7305 0-3.4648-0.16797-5.2031-0.5-1.7422-0.32031-3.4766-0.80469-5.2031-1.4531v-5.9219c1.7266 0.92969 3.4062 1.625 5.0312 2.0938 1.625 0.46094 3.1914 0.6875 4.7031 0.6875 1.5312 0 2.7031-0.25391 3.5156-0.76562 0.8125-0.50781 1.2188-1.2383 1.2188-2.1875 0-0.84375-0.27734-1.4922-0.82812-1.9531-0.55469-0.46875-1.6562-0.88281-3.3125-1.25l-2.7188-0.59375c-2.7188-0.58203-4.7109-1.5078-5.9688-2.7812-1.2617-1.2812-1.8906-3.0039-1.8906-5.1719 0-2.707 0.875-4.7891 2.625-6.25 1.75-1.457 4.2656-2.1875 7.5469-2.1875 1.5 0 3.0352 0.11719 4.6094 0.34375 1.582 0.21875 3.2188 0.55469 4.9062 1z"/>
  </symbol>
  <symbol id="t" overflow="visible">
   <path d="m2.125-20.406h17.812v4.5469l-10.75 11.188h10.75v4.6719h-18.266v-4.5625l10.766-11.188h-10.312z"/>
  </symbol>
  <symbol id="g" overflow="visible">
   <path d="m23.656-12.438v12.438h-6.5625v-9.4844c0-1.7812-0.042969-3.0039-0.125-3.6719-0.074219-0.66406-0.21094-1.1602-0.40625-1.4844-0.25-0.42578-0.59375-0.75391-1.0312-0.98438-0.4375-0.23828-0.9375-0.35938-1.5-0.35938-1.3555 0-2.4219 0.52734-3.2031 1.5781-0.78125 1.0547-1.1719 2.5078-1.1719 4.3594v10.047h-6.5156v-28.359h6.5156v10.938c0.98828-1.1875 2.0352-2.0625 3.1406-2.625 1.1016-0.57031 2.3203-0.85938 3.6562-0.85938 2.3633 0 4.1562 0.72656 5.375 2.1719 1.2188 1.4492 1.8281 3.5469 1.8281 6.2969z"/>
  </symbol>
  <symbol id="s" overflow="visible">
   <path d="m16.562-28.359v4.2812h-3.6094c-0.91797 0-1.5586 0.16797-1.9219 0.5-0.36719 0.33594-0.54688 0.91797-0.54688 1.75v1.4219h5.5781v4.6562h-5.5781v15.75h-6.5312v-15.75h-3.25v-4.6562h3.25v-1.4219c0-2.2266 0.61719-3.875 1.8594-4.9375 1.2383-1.0625 3.1602-1.5938 5.7656-1.5938z"/>
  </symbol>
  <symbol id="d" overflow="visible">
   <path d="m12.844-16.234c-1.4375 0-2.5391 0.52344-3.2969 1.5625-0.76172 1.0312-1.1406 2.5273-1.1406 4.4844 0 1.9609 0.37891 3.4609 1.1406 4.5 0.75781 1.0312 1.8594 1.5469 3.2969 1.5469 1.4258 0 2.5156-0.51562 3.2656-1.5469 0.75781-1.0391 1.1406-2.5391 1.1406-4.5 0-1.957-0.38281-3.4531-1.1406-4.4844-0.75-1.0391-1.8398-1.5625-3.2656-1.5625zm0-4.6719c3.5195 0 6.2656 0.94922 8.2344 2.8438 1.9766 1.8984 2.9688 4.5234 2.9688 7.875 0 3.3555-0.99219 5.9805-2.9688 7.875-1.9688 1.8984-4.7148 2.8438-8.2344 2.8438-3.5234 0-6.2773-0.94531-8.2656-2.8438-1.9805-1.8945-2.9688-4.5195-2.9688-7.875 0-3.3516 0.98828-5.9766 2.9688-7.875 1.9883-1.8945 4.7422-2.8438 8.2656-2.8438z"/>
  </symbol>
  <symbol id="r" overflow="visible">
   <path d="m22.047-17.031c0.83203-1.2578 1.8164-2.2188 2.9531-2.875 1.1328-0.66406 2.3828-1 3.75-1 2.3438 0 4.125 0.72656 5.3438 2.1719 1.2266 1.4492 1.8438 3.5469 1.8438 6.2969v12.438h-6.5625v-10.641c0.019531-0.15625 0.03125-0.31641 0.03125-0.48438 0.007812-0.17578 0.015625-0.42188 0.015625-0.73438 0-1.4453-0.21484-2.4922-0.64062-3.1406-0.42969-0.65625-1.1172-0.98438-2.0625-0.98438-1.2422 0-2.1992 0.51172-2.875 1.5312-0.66797 1.0234-1.0156 2.4961-1.0469 4.4219v10.031h-6.5625v-10.641c0-2.2578-0.19531-3.7109-0.57812-4.3594-0.38672-0.65625-1.0781-0.98438-2.0781-0.98438-1.25 0-2.2188 0.51562-2.9062 1.5469-0.67969 1.0234-1.0156 2.4844-1.0156 4.3906v10.047h-6.5625v-20.406h6.5625v2.9844c0.80078-1.1562 1.7227-2.0234 2.7656-2.6094 1.0391-0.58203 2.1875-0.875 3.4375-0.875 1.4062 0 2.6484 0.34375 3.7344 1.0312 1.082 0.67969 1.8984 1.625 2.4531 2.8438z"/>
  </symbol>
  <symbol id="q" overflow="visible">
   <path d="m3.4219-27.219h7.8438l9.8906 18.672v-18.672h6.6562v27.219h-7.8438l-9.8906-18.672v18.672h-6.6562z"/>
  </symbol>
  <symbol id="p" overflow="visible">
   <path d="m2.9219-7.9531v-12.453h6.5625v2.0312c0 1.1055-0.011719 2.4961-0.03125 4.1719-0.011719 1.668-0.015625 2.7812-0.015625 3.3438 0 1.6367 0.039062 2.8203 0.125 3.5469 0.09375 0.71875 0.23828 1.2461 0.4375 1.5781 0.26953 0.41797 0.61719 0.74609 1.0469 0.98438 0.4375 0.23047 0.9375 0.34375 1.5 0.34375 1.3516 0 2.4219-0.51953 3.2031-1.5625 0.78125-1.0508 1.1719-2.5039 1.1719-4.3594v-10.078h6.5156v20.406h-6.5156v-2.9531c-0.99219 1.1875-2.0391 2.0703-3.1406 2.6406-1.0938 0.5625-2.3047 0.84375-3.625 0.84375-2.3672 0-4.1641-0.72266-5.3906-2.1719-1.2305-1.4453-1.8438-3.5508-1.8438-6.3125z"/>
  </symbol>
  <symbol id="o" overflow="visible">
   <path d="m3.4219-27.219h11.656c3.457 0 6.1133 0.77344 7.9688 2.3125 1.8516 1.543 2.7812 3.7305 2.7812 6.5625 0 2.8672-0.92969 5.0703-2.7812 6.6094-1.8555 1.5312-4.5117 2.2969-7.9688 2.2969h-4.6406v9.4375h-7.0156zm7.0156 5.0938v7.5938h3.8906c1.3633 0 2.4141-0.32812 3.1562-0.98438 0.73828-0.66406 1.1094-1.6094 1.1094-2.8281 0-1.207-0.37109-2.1406-1.1094-2.7969-0.74219-0.65625-1.793-0.98438-3.1562-0.98438z"/>
  </symbol>
  <symbol id="n" overflow="visible">
   <path d="m3.1406-20.406h6.5156v20.047c0 2.7266-0.65625 4.8125-1.9688 6.25-1.3125 1.4453-3.2148 2.1719-5.7031 2.1719h-3.2188v-4.2969h1.125c1.2383 0 2.0859-0.28125 2.5469-0.84375 0.46875-0.55469 0.70312-1.6484 0.70312-3.2812zm0-7.9531h6.5156v5.3281h-6.5156z"/>
  </symbol>
  <symbol id="m" overflow="visible">
   <path d="m19.625-19.781v5.3281c-0.88672-0.60156-1.7773-1.0508-2.6719-1.3438-0.88672-0.28906-1.8086-0.4375-2.7656-0.4375-1.8242 0-3.2461 0.53125-4.2656 1.5938-1.0117 1.0625-1.5156 2.5469-1.5156 4.4531s0.50391 3.3906 1.5156 4.4531c1.0195 1.0625 2.4414 1.5938 4.2656 1.5938 1.0195 0 1.9883-0.14844 2.9062-0.45312 0.91406-0.30078 1.7578-0.75 2.5312-1.3438v5.3438c-1.0234 0.375-2.0586 0.65625-3.1094 0.84375-1.043 0.1875-2.0938 0.28125-3.1562 0.28125-3.6797 0-6.5586-0.94141-8.6406-2.8281-2.0742-1.8945-3.1094-4.5234-3.1094-7.8906 0-3.3633 1.0352-5.9883 3.1094-7.875 2.082-1.8945 4.9609-2.8438 8.6406-2.8438 1.0703 0 2.125 0.09375 3.1562 0.28125 1.0391 0.1875 2.0781 0.46875 3.1094 0.84375z"/>
  </symbol>
 </defs>
 <g>
  <path d="m533.18 445.49c-14.559-7.6328-8.3633-21.797-2.5156-28.375 9.1445-10.266 26.617-14.789 32.367-17.254 13.328-5.7188 27.418-29.891 17.254-41.074-14.559-16-62.918-26.344-79.129-40.059-1.4727 4.9648-4.6172 10.715-8.5664 14.535-16.375 15.801-49.75 21.141-62.504 29.949-3.1211 2.1523-10.734 8.4531-18.418 12.516-7.4062 3.9258-17.285 7.1016-23.594-0.5-1.9883-2.3828-3.2344-4.832-3.8828-7.2578-11.113 5.2695-25.582 6.7734-40.465 11.027-7.6445 2.1797-18.926 5.1367-29.746 8.2344-9.4805 2.7266-18.203 5.4453-23.488 7.6914 0.42969 5.4805 0.48437 9.918-0.082032 12.23-0.11328 0.44141-0.31641 0.82812-0.60547 1.1719-4.1758 4.8711-16.719 9.4531-32.02 12.992-15.715 3.6367-35.434 6.3789-55.027 6.8164-25.27 0.57812-53.961-1.5742-77.25-5.6641-22.258-3.9297-42.008-9.9023-46.258-18.758-0.26953-0.55078-0.35156-1.1875-0.22266-1.793 4.8008-24.094 9.3945-46.285 14.836-69.648 0.14844-0.59766 0.46875-1.125 0.94922-1.5312 8.1758-6.8672 32.262-10.52 41.73-12.004-0.39453-1.8242-0.75391-3.6367-1.0742-5.4609-0.5 0.24219-1.0781 0.33203-1.668 0.22656-4.293-0.71094-9.3164-1.2852-14.43-2.1133-5.125-0.83594-10.453-1.9336-15.188-3.7344-1.4727-0.55078-2.2109-2.2109-1.6602-3.6719 0.57031-1.4727 2.2109-2.2188 3.6836-1.6602 4.1797 1.5977 9.0625 2.6211 14.074 3.4375 4.9727 0.80469 10.012 1.3945 14.379 2.1055-0.35547-2.9062-0.61719-5.8164-0.76953-8.7148-3.9922-0.91797-9.3672-2.7617-14.582-4.7578-5.418-2.082-10.855-4.3984-14.738-6.2031-1.4336-0.65625-2.0547-2.3594-1.3867-3.7852 0.65625-1.4258 2.3594-2.0469 3.7852-1.3906 3.7695 1.7539 9.0781 4.0273 14.379 6.0508 4.5312 1.7461 8.9688 3.2695 12.387 4.1719-0.042969-26.984 9.0938-52.684 24.895-71.867l5.2188-5.8242 3.6133-6.4883c4.0352-7.4492 8.8555-16.746 13.574-24.387 5.0547-8.1758 11.633-17.328 18.535-18.68l2.4023-0.097657 0.44141 0.023438 0.125 0.007812 1.9883 0.14844c8.3633 1.793 11.797 14.633 14.434 25.012 18.398-26.984 40.035-45.141 68.336-62.422 44.598-27.215 112.54-32.336 151.41-15.574 33.734 14.547 61.938 43.293 76.16 74.414 9.4297 20.645 11.109 50.383 5.3086 75.926-0.027344 0.12891-0.066407 0.25391-0.11328 0.375-3.7695 10.02 10.551 26.41 32.047 35.125 11.031 4.4727 29.234 13.355 35.395 15.984 48.719 20.793 54.184 61.438 23.34 99.629-14.246 17.637-54.133 43.262-77.668 30.949zm73.227-34.535c28.797-35.645 23.652-71.688-21.141-90.801-7.0312-3.0078-23.945-11.344-35.293-15.949-18.113-7.3398-35.996-22.395-36.258-36.469l0.91797-5.5625c5.5859-24.633 3.8438-53.051-4.957-72.312-13.648-29.867-40.82-57.578-73.219-71.539-36.996-15.941-103-11.164-146.2 15.211-28.59 17.441-49.941 35.605-68.086 62.996-0.375 0.55078-0.89844 0.94141-1.4805 1.1328 0.054688 0.1875 0.10547 0.375 0.16406 0.54688l0.94141 2.5547 3.5156 0.19922c12.539 0.82031 34.863 3.1133 51.125 9.9766l5.5547 2.8086 2.2656-1.8594c5.3203-4.1602 14.566-10.289 23.48-15.105 9.2734-5.0039 26.297-13.227 29.375-3.2422 4.6719 15.105-5.0625 44.555-7.3242 58.316-0.25391 1.5586-1.7188 2.6133-3.2734 2.3516-1.5508-0.25391-2.6055-1.7188-2.3516-3.2773 2.4805-15.07 11.543-42.613 7.4961-55.703-0.035156-0.13281-0.46094-1.4102-5.4414-0.17188-4.2617 1.0547-9.8867 3.5703-15.77 6.7422-11.852 6.3906-23.543 14.762-25.828 17.301-0.91797 1.0156-2.4258 1.2383-3.6055 0.52344-16.934-10.387-49.207-12.695-61.359-13.27-1.0312-0.050781-1.957-0.65625-2.4219-1.582-4.6367-9.3945-6.7578-33.613-14.969-33.195-0.19531 0.007813-0.38281 0-0.57422-0.03125-3.3711-0.50781-8.9766 5.0977-15.801 16.129-6.4297 10.387-12.207 22.34-17.227 30.949-0.11719 0.19922-0.26172 0.38672-0.42578 0.55078-16.121 16.508-26.41 39.707-28.426 64.75 0.94922 0.13672 1.8008 0.75391 2.2109 1.6953 3.0977 7.2305 8.4062 9.9922 14.523 10.516 6.3828 0.55078 13.648-1.3594 20.047-3.793 1.4648-0.5625 3.1055 0.17969 3.6758 1.6484 0.55859 1.4648-0.1875 3.1211-1.6523 3.6758-6.6133 2.5312-14.867 4.8125-22.555 4.1484-6.4141-0.54297-12.418-3.1797-16.613-9.1367-0.0625 17.465 3.9258 35.531 12.75 52.625 0.71875 1.3945 0.17188 3.1211-1.2227 3.8359-1.3984 0.72656-3.1211 0.17969-3.8477-1.2148-3.9922-7.7383-7.0469-15.676-9.2188-23.664-0.11328 0.039062-0.22656 0.058593-0.34375 0.074219-11.02 1.75-30.164 5.0039-37.738 9.7969l-0.64062 0.47266-3.6953 16.262c-2.5391 11.438-4.9297 22.793-7.3047 34.434l-3.3359 16.555 1.082 1.418c4.9805 4.7891 19.383 9.8555 40.566 13.582 22.895 4.0195 51.215 6.1523 76.121 5.5859 19.191-0.44141 38.523-3.1211 53.883-6.6758 13.855-3.2031 23.609-6.9648 27.617-9.9219l0.83594-0.76172 0.14453-1.1484c0.10938-2.0469-0.007812-5.1094-0.32422-8.8633-0.097656-0.13672-0.17969-0.27734-0.25391-0.43359-0.41797-0.82812-0.38672-1.7617-0.007813-2.5312-0.57422-5.7656-1.4922-12.738-2.6406-20.027-2.5938-16.395-5.4805-29.172-6.6016-31.008l-0.20313-0.1875c-0.64844-0.89453-0.74609-2.1289-0.14062-3.1523 0.8125-1.3516 2.5625-1.7891 3.9062-0.97656 0.73047 0.43359 1.1328 1.0664 1.2969 1.3359 1.2695 2.0898 2.9648 9.0352 4.5703 17.227 1.8516-1.9023 4.0039-3.3594 6.332-4.4883 3.3438-1.6328 7.0625-2.582 10.812-3.1797 7.3477-1.1719 15.285-1.0312 21.453-1.5977 1.5664-0.14062 2.957 1.0156 3.0977 2.582 0.14062 1.5625-1.0156 2.957-2.5859 3.0977-6.4336 0.58594-14.109 0.44141-21.078 1.5547-6.9141 1.0977-12.445 3.332-15.574 8.0273-0.29688 0.44141-0.70312 0.76953-1.1484 0.98438 0.52734 2.9883 1.0352 6.0117 1.4922 8.9023 0.93359 5.9336 1.8086 12.16 2.4258 17.801 5.7891-2.2852 14.055-4.8164 22.484-7.2383 10.75-3.082 22.266-6.1055 29.738-8.25 16.301-4.6523 31.137-5.9883 41.566-11.699 0.47266-4.4141 2.5859-8.5664 5.4062-11.984 4.0938-4.9727 10.102-8.9883 15.77-10.527l0.74609-0.14844-3.0312-5.3711c-10.414-17.746-8.5859-38.398 5.6836-51.414 1.1641-1.0742 2.9727-0.98438 4.0234 0.17969 1.0742 1.1641 0.98438 2.9648-0.17969 4.0234-11.953 10.918-13.887 28.5-4.5781 44.375l5.1445 9.1328c1.0938 1.9609-0.40234 4.3672-2.6406 4.2461-4.5039-0.23828-11.781 3.3555-16.539 9.1328-4.6016 5.5781-6.0547 12.125-1.0664 18.129 3.2305 3.8984 8.875 3.168 16.543-0.88672 7.3203-3.875 14.055-9.5586 17.84-12.18 14.523-10.027 46.359-14.465 61.777-29.352 5.168-4.9805 8.1172-13.559 7.7148-16.359-0.21875-1.5547 0.86719-3.0078 2.418-3.2266 1.0703-0.14844 2.0781 0.30859 2.6797 1.1055 0.27734 0.21094 0.51562 0.46484 0.71875 0.76953 8.9609 14.277 63.465 22.73 82.355 43.5 14.75 16.219-5.4805 44.242-19.234 50.148-7.25 3.1133-22.324 6.793-30.344 15.812-5.6289 6.332-7.9141 14.902 0.89844 19.52 19.336 10.125 56.336-11.844 70.582-29.48zm-466.52-56.492c-11.797-1.9258-24.594-5.0312-30.711-9.0781-1.3125-0.86719-1.6797-2.6367-0.8125-3.9492 0.875-1.3086 2.6445-1.668 3.957-0.80078 2.3008 1.5156 6.2344 3.0781 11.371 4.5234 5.0508 1.4258 10.992 2.6758 17.121 3.6836 22.215 3.6445 56.328 5.7422 79.691 3.2383 4.8906-0.52734 13.18-2.1719 21.176-4.0625 8.0508-1.8867 15.473-3.9414 18.684-5.2188 1.4609-0.57422 3.1211 0.15234 3.6953 1.6133 0.58203 1.4648-0.13281 3.1211-1.5977 3.6953-3.668 1.4492-11.484 3.5859-19.465 5.4688-8.0352 1.8867-16.621 3.6133-21.887 4.1719-24.004 2.5781-58.648 0.42578-81.223-3.2852zm42.234-37.027c-0.32422-1.082-0.21875-2.2852 0.45312-3.5977 3.4648-8.332 20.391-2.2422 25.82 2.5508 1.6445 1.4414 0.57422 2.3633-1.2773 4.5273-4.5078 5.2578-23.012 3.2266-24.996-3.4805zm42.945-14.395c-0.5-1.4883 0.31641-3.1055 1.8008-3.6055 1.4922-0.49609 3.1133 0.3125 3.6133 1.8047 2.4648 7.4062 9.1484 10.312 16.605 10.281 7.9609-0.027344 16.785-3.4805 22.625-9.043 1.1367-1.0898 2.9414-1.043 4.0234 0.097656 1.0898 1.1367 1.0547 2.9336-0.097656 4.0312-6.9141 6.5938-17.156 10.582-26.527 10.621-9.7578 0.035156-18.742-4.2734-22.043-14.188z" fill-rule="evenodd"/>
  <use x="70" y="672" xlink:href="#w"/>
  <use x="97.398438" y="672" xlink:href="#c"/>
  <use x="115.808594" y="672" xlink:href="#a"/>
  <use x="141.128906" y="672" xlink:href="#f"/>
  <use x="166.324219" y="672" xlink:href="#b"/>
  <use x="184.167969" y="672" xlink:href="#a"/>
  <use x="209.488281" y="672" xlink:href="#l"/>
  <use x="249.210938" y="672" xlink:href="#k"/>
  <use x="275.933594" y="672" xlink:href="#j"/>
  <use x="313.269531" y="672" xlink:href="#i"/>
  <use x="344.257812" y="672" xlink:href="#a"/>
  <use x="369.578125" y="672" xlink:href="#e"/>
  <use x="396.15625" y="672" xlink:href="#h"/>
  <use x="408.953125" y="672" xlink:href="#v"/>
  <use x="444.171875" y="672" xlink:href="#u"/>
  <use x="471.058594" y="672" xlink:href="#f"/>
  <use x="496.253906" y="672" xlink:href="#t"/>
  <use x="517.980469" y="672" xlink:href="#g"/>
  <use x="544.558594" y="672" xlink:href="#h"/>
  <use x="557.355469" y="672" xlink:href="#e"/>
  <use x="70" y="709.332031" xlink:href="#s"/>
  <use x="86.242188" y="709.332031" xlink:href="#c"/>
  <use x="104.652344" y="709.332031" xlink:href="#d"/>
  <use x="130.300781" y="709.332031" xlink:href="#r"/>
  <use x="182.199219" y="709.332031" xlink:href="#b"/>
  <use x="200.046875" y="709.332031" xlink:href="#g"/>
  <use x="226.625" y="709.332031" xlink:href="#a"/>
  <use x="264.941406" y="709.332031" xlink:href="#q"/>
  <use x="296.1875" y="709.332031" xlink:href="#d"/>
  <use x="321.835938" y="709.332031" xlink:href="#p"/>
  <use x="348.414062" y="709.332031" xlink:href="#e"/>
  <use x="387.988281" y="709.332031" xlink:href="#o"/>
  <use x="415.351562" y="709.332031" xlink:href="#c"/>
  <use x="433.761719" y="709.332031" xlink:href="#d"/>
  <use x="459.410156" y="709.332031" xlink:href="#n"/>
  <use x="472.207031" y="709.332031" xlink:href="#a"/>
  <use x="497.527344" y="709.332031" xlink:href="#m"/>
  <use x="519.660156" y="709.332031" xlink:href="#b"/>
 </g>
</svg>
